Coordinates
version=1
nRows=13
nColumns=36
inDegrees=yes

Units are S.I. units (second, meters, Newtons, ...)
Angles are in degrees.

endheader
time	pelvis_tilt	pelvis_list	pelvis_rotation	pelvis_tx	pelvis_ty	pelvis_tz	hip_flexion_r	hip_adduction_r	hip_rotation_r	knee_angle_r	ankle_angle_r	subtalar_angle_r	hip_flexion_l	hip_adduction_l	hip_rotation_l	knee_angle_l	ankle_angle_l	subtalar_angle_l	lumbar_extension	lumbar_bending	lumbar_rotation	arm_flex_r	arm_add_r	arm_rot_r	elbow_flex_r	pro_sup_r	wrist_flex_r	wrist_dev_r	arm_flex_l	arm_add_l	arm_rot_l	elbow_flex_l	pro_sup_l	wrist_flex_l	wrist_dev_l
      0.80000000	      0.23349112	      1.99847446	      6.11349597	     -0.69604587	      0.90401224	      0.21633032	     27.28264680	     -2.16511614	     -9.98427928	    -13.87011508	      2.72437439	      5.41108288	    -12.20013547	      5.43168478	      6.75450379	    -11.28982068	     14.01114023	      5.42040766	     -7.37634274	     -1.95840316	     -9.01186831	     -5.36590308	    -13.73678690	     13.87925597	      7.72798948	     86.51662706	      0.00000000	      0.00000000	     11.92302516	    -20.45945378	     19.75929808	     37.16478402	     86.51662706	      0.00000000	      0.00000000
      0.81000000	      0.47783546	      1.89425448	      6.35130532	     -0.68247829	      0.90279311	      0.21652009	     27.20052939	     -2.00184416	    -10.93033015	    -12.32864676	      3.11179014	      6.83452421	    -13.21994771	      5.07353572	      7.01715175	    -11.58358487	     14.12630267	      5.81563855	     -7.67720741	     -1.78877369	     -9.41171313	     -5.36878706	    -13.59045111	     13.85462940	      7.28859290	     86.51662706	      0.00000000	      0.00000000	     12.08238836	    -20.61335085	     19.28158863	     38.11977905	     86.51662706	      0.00000000	      0.00000000
      0.82000000	      0.63002611	      1.84724883	      6.53341099	     -0.66881407	      0.90149406	      0.21677228	     27.23539269	     -1.87135351	    -11.54391253	    -11.34758035	      3.47873662	      7.64325421	    -14.06776451	      4.81005975	      7.22725751	    -12.02469428	     14.12933357	      6.15649387	     -7.85705070	     -1.68935503	     -9.74085180	     -5.41273751	    -13.45598903	     13.92763065	      6.98032211	     86.51662706	      0.00000000	      0.00000000	     12.21247456	    -20.71301128	     18.87721512	     38.83073859	     86.51662706	      0.00000000	      0.00000000
      0.83000000	      0.72208072	      1.83636304	      6.67838669	     -0.65499506	      0.90016044	      0.21704261	     27.33623508	     -1.76294825	    -11.87755312	    -10.91796903	      3.79826201	      7.88279351	    -14.77788574	      4.60647055	      7.37829110	    -12.61166729	     14.04066330	      6.48968976	     -7.93655756	     -1.63368995	    -10.02257698	     -5.48935453	    -13.33752414	     14.08010586	      6.77767099	     86.51662706	      0.00000000	      0.00000000	     12.28839035	    -20.76638516	     18.52164801	     39.35602640	     86.51662706	      0.00000000	      0.00000000
      0.84000000	      0.78617798	      1.83545782	      6.80420045	     -0.64092233	      0.89884382	      0.21729147	     27.44456652	     -1.65781917	    -11.99370946	    -11.01123937	      4.02039069	      7.60995767	    -15.38457440	      4.42253873	      7.45676547	    -13.34080790	     13.87914243	      6.87193502	     -7.93501164	     -1.59015038	    -10.27910753	     -5.59022562	    -13.24070396	     14.28869356	      6.65170184	     86.51662706	      0.00000000	      0.00000000	     12.28201603	    -20.78120342	     18.18750497	     39.76027244	     86.51662706	      0.00000000	      0.00000000
      0.85000000	      0.84320753	      1.81870023	      6.92151220	     -0.62648195	      0.89759058	      0.21750927	     27.51013364	     -1.52960856	    -11.95318890	    -11.56831352	      4.07460680	      6.88791726	    -15.91030657	      4.22143273	      7.44266215	    -14.20625504	     13.65177657	      7.35688627	     -7.86465241	     -1.52800379	    -10.52337761	     -5.70874391	    -13.17168225	     14.52893319	      6.57694406	     86.51662706	      0.00000000	      0.00000000	     12.17036381	    -20.76236374	     17.85119386	     40.09768260	     86.51662706	      0.00000000	      0.00000000
      0.86000000	      0.89804130	      1.76407989	      7.03082980	     -0.61160821	      0.89641597	      0.21770921	     27.50293991	     -1.34749319	    -11.80796951	    -12.49642663	      3.88099343	      5.78640225	    -16.36099339	      3.97346588	      7.31265315	    -15.20234005	     13.34550904	      7.98522421	     -7.73068038	     -1.41969366	    -10.75572213	     -5.83991732	    -13.13611066	     14.77812947	      6.53518240	     86.51662706	      0.00000000	      0.00000000	     11.94120681	    -20.71078689	     17.49649067	     40.40316602	     86.51662706	      0.00000000	      0.00000000
      0.87000000	      0.94352197	      1.65406265	      7.12353672	     -0.59633498	      0.89527639	      0.21789880	     27.42201814	     -1.08188969	    -11.59567531	    -13.67828537	      3.36910260	      4.38313582	    -16.72737087	      3.65561224	      7.04542693	    -16.32775476	     12.92195405	      8.77796769	     -7.53499496	     -1.24024139	    -10.96501586	     -5.97901595	    -13.13822597	     15.01696803	      6.51671946	     86.51662706	      0.00000000	      0.00000000	     11.59538558	    -20.62346363	     17.11581420	     40.69003755	     86.51662706	      0.00000000	      0.00000000
      0.88000000	      0.97132685	      1.47324391	      7.18576323	     -0.58076669	      0.89409439	      0.21807658	     27.29791025	     -0.71133822	    -11.33475946	    -14.99378191	      2.50075248	      2.76366698	    -16.98937178	      3.24877214	      6.62796398	    -17.58922156	     12.31659735	      9.73306931	     -7.28087918	     -0.96619678	    -11.13312833	     -6.12010670	    -13.18019729	     15.23005814	      6.51981952	     86.51662706	      0.00000000	      0.00000000	     11.14579102	    -20.49450104	     16.70991912	     40.95265564	     86.51662706	      0.00000000	      0.00000000
      0.89000000	      0.98064118	      1.20492400	      7.20358388	     -0.56500579	      0.89285924	      0.21826431	     27.18235333	     -0.22692655	    -11.02214767	    -16.34874063	      1.29033414	      1.01835479	    -17.12018234	      2.73611876	      6.06122537	    -19.00228254	     11.44409223	     10.82510657	     -6.97609768	     -0.57669751	    -11.24089616	     -6.25533267	    -13.26193035	     15.40569850	      6.54906696	     86.51662706	      0.00000000	      0.00000000	     10.61376967	    -20.31703406	     16.28662726	     41.17216177	     86.51662706	      0.00000000	      0.00000000
      0.90000000	      0.97592651	      0.83111225	      7.16795637	     -0.54914283	      0.89171311	      0.21852983	     27.12364701	      0.36966238	    -10.63678113	    -17.69863061	     -0.18488959	     -0.76321466	    -17.08895341	      2.10551912	      5.36363274	    -20.58840203	     10.21058786	     12.00753887	     -6.63325458	     -0.05746563	    -11.27365658	     -6.37534741	    -13.38132550	     15.53522347	      6.61327278	     86.51662706	      0.00000000	      0.00000000	     10.02432317	    -20.08570284	     15.85909073	     41.32346412	     86.51662706	      0.00000000	      0.00000000
      0.91000000	      0.95846189	      0.33960713	      7.07755649	     -0.53330129	      0.89089353	      0.21893493	     27.14157606	      1.07351645	    -10.15111957	    -19.05095386	     -1.79017445	     -2.49900433	    -16.86414731	      1.35535081	      4.57125127	    -22.36983439	      8.53248627	     13.21673046	     -6.26802788	      0.59367107	    -11.22474064	     -6.47073549	    -13.53470855	     15.61227342	      6.72339089	     86.51662706	      0.00000000	      0.00000000	      9.40166726	    -19.79914184	     15.44395235	     41.38175974	     86.51662706	      0.00000000	      0.00000000
      0.92000000	      0.92570844	     -0.26549213	      6.93793331	     -0.51760634	      0.89055235	      0.21945325	     27.22202246	      1.88155144	     -9.54778959	    -20.43803988	     -3.35461744	     -4.12057794	    -16.41980549	      0.49916555	      3.73466474	    -24.36489615	      6.35899799	     14.37691710	     -5.89687092	      1.36250176	    -11.09618718	     -6.53371926	    -13.71714252	     15.63224684	      6.89073734	     86.51662706	      0.00000000	      0.00000000	      8.76638704	    -19.46172805	     15.05967632	     41.32727898	     86.51662706	      0.00000000	      0.00000000
